<mxfile host="drawio-plugin" modified="2022-05-28T20:09:50.825Z" agent="5.0 (Macintosh; Intel Mac OS X 11_6_5) AppleWebKit/537.36 (KHTML, like Gecko) Chrome/89.0.4389.114 Safari/537.36" etag="oPmL9fzJRQs3M4X33rP1" version="15.5.4" type="embed"><diagram id="Z2jcMHh6qGnTirgX47_j" name="Page-1"><mxGraphModel dx="882" dy="1469" grid="1" gridSize="10" guides="1" tooltips="1" connect="1" arrows="1" fold="1" page="1" pageScale="1" pageWidth="850" pageHeight="1100" math="0" shadow="0"><root><mxCell id="0"/><mxCell id="1" parent="0"/><mxCell id="jcvcmLMu-sH0ZI6tiui6-1" value="IAM" style="ellipse;whiteSpace=wrap;html=1;fillColor=#f5f5f5;fontColor=#333333;strokeColor=#666666;" parent="1" vertex="1"><mxGeometry x="477.5" y="450" width="120" height="80" as="geometry"/></mxCell><mxCell id="jcvcmLMu-sH0ZI6tiui6-2" value="" style="ellipse;whiteSpace=wrap;html=1;fillColor=#f5f5f5;fontColor=#333333;strokeColor=#666666;" parent="1" vertex="1"><mxGeometry x="410" y="70" width="340" height="230" as="geometry"/></mxCell><mxCell id="jcvcmLMu-sH0ZI6tiui6-3" value="" style="ellipse;whiteSpace=wrap;html=1;fillColor=#fff2cc;strokeColor=#d6b656;" parent="1" vertex="1"><mxGeometry x="50" y="380" width="320" height="200" as="geometry"/></mxCell><mxCell id="jcvcmLMu-sH0ZI6tiui6-16" style="edgeStyle=orthogonalEdgeStyle;rounded=0;orthogonalLoop=1;jettySize=auto;html=1;" parent="1" source="jcvcmLMu-sH0ZI6tiui6-5" target="jcvcmLMu-sH0ZI6tiui6-15" edge="1"><mxGeometry relative="1" as="geometry"/></mxCell><mxCell id="jcvcmLMu-sH0ZI6tiui6-32" style="edgeStyle=orthogonalEdgeStyle;rounded=0;orthogonalLoop=1;jettySize=auto;html=1;entryX=0;entryY=0.5;entryDx=0;entryDy=0;" parent="1" source="jcvcmLMu-sH0ZI6tiui6-5" target="jcvcmLMu-sH0ZI6tiui6-31" edge="1"><mxGeometry relative="1" as="geometry"/></mxCell><mxCell id="jcvcmLMu-sH0ZI6tiui6-5" value="Non-Profit Offering" style="rounded=0;whiteSpace=wrap;html=1;" parent="1" vertex="1"><mxGeometry x="120" y="400" width="70" height="50" as="geometry"/></mxCell><mxCell id="jcvcmLMu-sH0ZI6tiui6-7" value="Advertising" style="text;html=1;strokeColor=none;fillColor=none;align=center;verticalAlign=middle;whiteSpace=wrap;rounded=0;" parent="1" vertex="1"><mxGeometry x="170" y="350" width="60" height="30" as="geometry"/></mxCell><mxCell id="jcvcmLMu-sH0ZI6tiui6-8" value="Operational reports" style="rounded=0;whiteSpace=wrap;html=1;" parent="1" vertex="1"><mxGeometry x="460" y="120" width="120" height="60" as="geometry"/></mxCell><mxCell id="jcvcmLMu-sH0ZI6tiui6-10" value="analytical reports" style="rounded=0;whiteSpace=wrap;html=1;" parent="1" vertex="1"><mxGeometry x="530" y="200" width="120" height="60" as="geometry"/></mxCell><mxCell id="jcvcmLMu-sH0ZI6tiui6-11" value="Analytics" style="text;html=1;strokeColor=none;fillColor=none;align=center;verticalAlign=middle;whiteSpace=wrap;rounded=0;" parent="1" vertex="1"><mxGeometry x="550" y="40" width="60" height="30" as="geometry"/></mxCell><mxCell id="jcvcmLMu-sH0ZI6tiui6-12" value="" style="ellipse;whiteSpace=wrap;html=1;fillColor=#ffe6cc;strokeColor=#d79b00;" parent="1" vertex="1"><mxGeometry x="50" y="-320" width="540" height="330" as="geometry"/></mxCell><mxCell id="jcvcmLMu-sH0ZI6tiui6-14" value="Engagements" style="rounded=0;whiteSpace=wrap;html=1;" parent="1" vertex="1"><mxGeometry x="430" y="-240" width="80" height="60" as="geometry"/></mxCell><mxCell id="jcvcmLMu-sH0ZI6tiui6-15" value="Attachments" style="rounded=0;whiteSpace=wrap;html=1;" parent="1" vertex="1"><mxGeometry x="120" y="490" width="70" height="50" as="geometry"/></mxCell><mxCell id="jcvcmLMu-sH0ZI6tiui6-34" style="edgeStyle=orthogonalEdgeStyle;rounded=0;orthogonalLoop=1;jettySize=auto;html=1;entryX=0.5;entryY=1;entryDx=0;entryDy=0;" parent="1" source="jcvcmLMu-sH0ZI6tiui6-17" target="jcvcmLMu-sH0ZI6tiui6-33" edge="1"><mxGeometry relative="1" as="geometry"/></mxCell><mxCell id="jcvcmLMu-sH0ZI6tiui6-17" value="Non-Profit&lt;br&gt;Services" style="rounded=0;whiteSpace=wrap;html=1;" parent="1" vertex="1"><mxGeometry x="132.5" y="-135" width="70" height="50" as="geometry"/></mxCell><mxCell id="jcvcmLMu-sH0ZI6tiui6-20" value="Non-Profit management" style="text;html=1;strokeColor=none;fillColor=none;align=center;verticalAlign=middle;whiteSpace=wrap;rounded=0;" parent="1" vertex="1"><mxGeometry x="270" y="-360" width="100" height="30" as="geometry"/></mxCell><mxCell id="jcvcmLMu-sH0ZI6tiui6-21" value="" style="ellipse;whiteSpace=wrap;html=1;fillColor=#f5f5f5;fontColor=#333333;strokeColor=#666666;" parent="1" vertex="1"><mxGeometry x="71.25" y="120" width="277.5" height="180" as="geometry"/></mxCell><mxCell id="jcvcmLMu-sH0ZI6tiui6-27" value="" style="edgeStyle=orthogonalEdgeStyle;rounded=0;orthogonalLoop=1;jettySize=auto;html=1;" parent="1" edge="1"><mxGeometry relative="1" as="geometry"><mxPoint x="205" y="540" as="targetPoint"/></mxGeometry></mxCell><mxCell id="jcvcmLMu-sH0ZI6tiui6-31" value="Candidate&lt;br&gt;matching" style="rounded=0;whiteSpace=wrap;html=1;" parent="1" vertex="1"><mxGeometry x="250" y="450" width="70" height="50" as="geometry"/></mxCell><mxCell id="jcvcmLMu-sH0ZI6tiui6-43" style="edgeStyle=orthogonalEdgeStyle;rounded=0;orthogonalLoop=1;jettySize=auto;html=1;entryX=0;entryY=0.5;entryDx=0;entryDy=0;" parent="1" source="jcvcmLMu-sH0ZI6tiui6-33" target="jcvcmLMu-sH0ZI6tiui6-42" edge="1"><mxGeometry relative="1" as="geometry"/></mxCell><mxCell id="jcvcmLMu-sH0ZI6tiui6-33" value="Service&lt;br&gt;Assessment" style="rounded=0;whiteSpace=wrap;html=1;" parent="1" vertex="1"><mxGeometry x="132.5" y="-235" width="70" height="50" as="geometry"/></mxCell><mxCell id="jcvcmLMu-sH0ZI6tiui6-36" value="Email System" style="ellipse;whiteSpace=wrap;html=1;fillColor=#f5f5f5;fontColor=#333333;strokeColor=#666666;" parent="1" vertex="1"><mxGeometry x="552.5" y="340" width="120" height="80" as="geometry"/></mxCell><mxCell id="jcvcmLMu-sH0ZI6tiui6-37" value="Calendar to schedule meetings" style="ellipse;whiteSpace=wrap;html=1;fillColor=#f5f5f5;fontColor=#333333;strokeColor=#666666;" parent="1" vertex="1"><mxGeometry x="387.5" y="340" width="120" height="80" as="geometry"/></mxCell><mxCell id="jcvcmLMu-sH0ZI6tiui6-38" value="&lt;span style=&quot;color: rgb(51 , 51 , 51)&quot;&gt;Non-Profit networking Hub&lt;br&gt;Open Community&lt;br&gt;&lt;/span&gt;" style="text;html=1;strokeColor=none;fillColor=none;align=center;verticalAlign=middle;whiteSpace=wrap;rounded=0;" parent="1" vertex="1"><mxGeometry x="132.5" y="90" width="162.5" height="30" as="geometry"/></mxCell><mxCell id="jcvcmLMu-sH0ZI6tiui6-39" value="Non-Profit&lt;br&gt;Community Porfile" style="rounded=0;whiteSpace=wrap;html=1;" parent="1" vertex="1"><mxGeometry x="110" y="155" width="120" height="60" as="geometry"/></mxCell><mxCell id="jcvcmLMu-sH0ZI6tiui6-40" value="Community meetings" style="rounded=0;whiteSpace=wrap;html=1;" parent="1" vertex="1"><mxGeometry x="200" y="240" width="77.5" height="40" as="geometry"/></mxCell><mxCell id="jcvcmLMu-sH0ZI6tiui6-44" style="edgeStyle=orthogonalEdgeStyle;rounded=0;orthogonalLoop=1;jettySize=auto;html=1;entryX=0;entryY=0.5;entryDx=0;entryDy=0;" parent="1" source="jcvcmLMu-sH0ZI6tiui6-42" target="jcvcmLMu-sH0ZI6tiui6-14" edge="1"><mxGeometry relative="1" as="geometry"><mxPoint x="362.5" y="-205" as="targetPoint"/></mxGeometry></mxCell><mxCell id="jcvcmLMu-sH0ZI6tiui6-42" value="Community Leader assignation" style="rounded=0;whiteSpace=wrap;html=1;" parent="1" vertex="1"><mxGeometry x="282.5" y="-235" width="70" height="50" as="geometry"/></mxCell><mxCell id="jcvcmLMu-sH0ZI6tiui6-47" value="" style="ellipse;whiteSpace=wrap;html=1;fillColor=#f5f5f5;fontColor=#333333;strokeColor=#666666;" parent="1" vertex="1"><mxGeometry x="650" y="430" width="277.5" height="180" as="geometry"/></mxCell><mxCell id="jcvcmLMu-sH0ZI6tiui6-48" value="&lt;span style=&quot;color: rgb(51 , 51 , 51)&quot;&gt;E-Learning&lt;/span&gt;" style="text;html=1;strokeColor=none;fillColor=none;align=center;verticalAlign=middle;whiteSpace=wrap;rounded=0;" parent="1" vertex="1"><mxGeometry x="736.25" y="400" width="105" height="30" as="geometry"/></mxCell><mxCell id="jcvcmLMu-sH0ZI6tiui6-49" value="Non-Profit&lt;br&gt;Platform Role based training" style="rounded=0;whiteSpace=wrap;html=1;" parent="1" vertex="1"><mxGeometry x="728.75" y="490" width="120" height="60" as="geometry"/></mxCell><mxCell id="jcvcmLMu-sH0ZI6tiui6-51" value="" style="ellipse;whiteSpace=wrap;html=1;fillColor=#ffe6cc;strokeColor=#d79b00;" parent="1" vertex="1"><mxGeometry x="620" y="-270" width="430" height="280" as="geometry"/></mxCell><mxCell id="jcvcmLMu-sH0ZI6tiui6-52" value="Candidate progress" style="rounded=0;whiteSpace=wrap;html=1;" parent="1" vertex="1"><mxGeometry x="890" y="-175" width="70" height="50" as="geometry"/></mxCell><mxCell id="jcvcmLMu-sH0ZI6tiui6-57" value="Candidate Management" style="text;html=1;strokeColor=none;fillColor=none;align=center;verticalAlign=middle;whiteSpace=wrap;rounded=0;" parent="1" vertex="1"><mxGeometry x="790" y="-310" width="100" height="30" as="geometry"/></mxCell><mxCell id="jcvcmLMu-sH0ZI6tiui6-64" value="Candidate Assessment&lt;span style=&quot;color: rgba(0 , 0 , 0 , 0) ; font-family: monospace ; font-size: 0px&quot;&gt;%3CmxGraphModel%3E%3Croot%3E%3CmxCell%20id%3D%220%22%2F%3E%3CmxCell%20id%3D%221%22%20parent%3D%220%22%2F%3E%3CmxCell%20id%3D%222%22%20value%3D%22Candidate%20progress%22%20style%3D%22rounded%3D0%3BwhiteSpace%3Dwrap%3Bhtml%3D1%3B%22%20vertex%3D%221%22%20parent%3D%221%22%3E%3CmxGeometry%20x%3D%22950%22%20y%3D%22-200%22%20width%3D%2270%22%20height%3D%2250%22%20as%3D%22geometry%22%2F%3E%3C%2FmxCell%3E%3C%2Froot%3E%3C%2FmxGraphModel%3E&lt;/span&gt;" style="rounded=0;whiteSpace=wrap;html=1;" parent="1" vertex="1"><mxGeometry x="710" y="-180" width="70" height="50" as="geometry"/></mxCell><mxCell id="jcvcmLMu-sH0ZI6tiui6-65" value="Candidate Career Roadmap" style="rounded=0;whiteSpace=wrap;html=1;" parent="1" vertex="1"><mxGeometry x="811.25" y="-115" width="70" height="50" as="geometry"/></mxCell><mxCell id="jcvcmLMu-sH0ZI6tiui6-66" value="&lt;b&gt;Core Domain&lt;/b&gt;" style="ellipse;whiteSpace=wrap;html=1;fillColor=#ffe6cc;strokeColor=#d79b00;" parent="1" vertex="1"><mxGeometry x="415" y="-490" width="62.5" height="60" as="geometry"/></mxCell><mxCell id="jcvcmLMu-sH0ZI6tiui6-67" value="&lt;b&gt;Supporting Domain&lt;/b&gt;" style="ellipse;whiteSpace=wrap;html=1;fillColor=#fff2cc;strokeColor=#d6b656;" parent="1" vertex="1"><mxGeometry x="505" y="-490" width="62.5" height="60" as="geometry"/></mxCell><mxCell id="jcvcmLMu-sH0ZI6tiui6-68" value="&lt;b&gt;Generic Domain&lt;/b&gt;" style="ellipse;whiteSpace=wrap;html=1;fillColor=#f5f5f5;strokeColor=#666666;fontColor=#333333;" parent="1" vertex="1"><mxGeometry x="598.75" y="-490" width="61.25" height="60" as="geometry"/></mxCell><mxCell id="fNi7VTzr3Uyhvz9H8CCe-1" value="&lt;font color=&quot;#000000&quot;&gt;Workflow&lt;/font&gt;" style="ellipse;whiteSpace=wrap;html=1;fillColor=#ffe6cc;strokeColor=#d79b00;" parent="1" vertex="1"><mxGeometry x="811.25" y="145" width="120" height="80" as="geometry"/></mxCell></root></mxGraphModel></diagram></mxfile>